<svg version="1" xmlns="http://www.w3.org/2000/svg" width="400" height="400" viewBox="0 0 300 300"><path d="M128 1.7c-53.7 8-99.4 45-118.3 95.8-2.9 7.7-6.3 20-7.2 25.5-.3 1.9-.9 6-1.4 9-1.6 9.8-.6 35.4 1.7 46.6 8.5 40.2 30.1 72.8 63.5 95.8 8.6 5.9 26.7 14.7 37.2 18.1 25.2 8.3 55.9 9.4 82 3.2 6.7-1.6 8.9-2.3 17-5.4 42.8-16.1 75.3-49.9 89.8-93.3 5.4-16.4 7.2-27.9 7.2-47 0-14.2-.5-19.7-2.9-31.5-3.5-17.8-14.4-41.9-25.6-57-10.7-14.3-26-28.8-40-37.6-14.6-9.3-34.7-17.6-49.5-20.5-1.1-.2-4.5-.9-7.5-1.5-8.6-1.7-35.1-1.9-46-.2zm47 18.8c48.2 10.2 85.5 43.3 100.4 89 4.7 14.1 6.6 28.2 6.1 44-.2 7.7-.7 15.1-.9 16.5-.3 1.4-.8 4.1-1.2 6-2.9 16-13.3 39.2-23.7 53-9.4 12.4-21.6 23.7-33.7 31.5-16.3 10.5-35.2 17.7-53.1 20.2-9.9 1.4-35.7.8-44.4-1.1C69.3 267.7 29.3 226 19.6 170.5c-1.4-8.1-1.4-34.2-.1-41.5 1.3-6.8 5.5-22 7.2-26.2C34.4 84.4 43.7 70.3 57 57c20.5-20.6 48.9-34.6 76-37.6 3-.4 5.7-.8 5.9-1.1 1.1-.9 29.3.7 36.1 2.2z"/><path d="M171.5 31.2c-5 1.8-10.8 6.1-13.8 10.4-2.4 3.5-5.3 13.2-8.2 27.7-.3 1-.6 2.6-.9 3.5-.3.9-.8 3.1-1 4.8-.3 1.6-1.9 9-3.6 16.3-1.6 7.3-3.2 14.3-3.4 15.5-.3 1.1-1.2 5.2-2.1 9.1-.9 3.8-1.9 8.1-2.2 9.5-.2 1.4-2.2 10.4-4.4 20-4.9 21.1-5.1 23.4-2.7 29.8 5.6 15.1 22.8 23 37.8 17.3 8.8-3.3 16.3-11.9 17.2-19.6.3-2.7.2-2.8-8.2-4.6-11.2-2.4-11.7-2.4-12.4.6-1 3.8-6.5 6.2-10.4 4.6-1.7-.7-3.5-2.5-4.2-4-1.2-3-1.2-3.1 12.5-63.6 3.6-16 6.7-30.1 7-31.5 1.7-8.5 5.4-22.9 6.4-24.8 1.4-2.6 4.9-3.6 9.5-2.8 4.4.8 5.8 2.7 6 7.8l.2 4.2 7.4 1.8c4.1.9 8.3 1.7 9.2 1.8 2.1 0 3.1-3 2.9-9.3-.2-9.3-6-18-15.3-22.9-4.9-2.5-18-3.4-23.3-1.6zM103 69.9c-12.8 6.8-8.8 26.8 5.8 28.8 5.7.8 12.1-2.5 15-7.6 7.6-13.4-7.1-28.4-20.8-21.2z"/><path d="M190 69.1c-9.4 4-12.4 16-5.9 24.3s20.6 6.8 25.5-2.6c3.4-6.5 1.3-15.6-4.6-19.8-3.4-2.4-11.4-3.5-15-1.9zM33.5 103.8c-.2.2-.4 21.1-.5 46.4v45.9l9.6-.3 9.7-.3.2-21.2c0-11.7.3-21.5.6-21.7.3-.3 2.6 5.4 5.3 12.7 2.6 7.3 6.2 17 8 21.7l3.2 8.5 9.7.3c5.3.1 9.7-.1 9.8-.5.1-.4.3-21.2.5-46.1L90 104l-4.7-.1c-9-.2-14.8.3-15.3 1.1-.3.5-.5 8.8-.5 18.4 0 9.7-.2 17.6-.5 17.6-.7 0-2.8-4.9-10.2-23-2.8-6.9-5.4-12.8-5.7-13.2-.6-.7-18.9-1.6-19.6-1zm173.4.4c0 .2-.2 17.6-.5 38.8-.3 21.2-.6 42-.7 46.2-.2 6 .1 7.8 1.2 8 .8.2 13.9.2 29.1 0l27.7-.3.1-9.2.2-9.3-18.2-.1c-11.8-.1-18.3-.5-18.8-1.2-.7-1.2-.2-15.3.6-16 .3-.3 14.8-.8 32.9-1l4-.1.1-9 .2-9-14.2-.1c-7.7-.1-15.4-.1-17.1-.1-7 .1-6.6 1.3-5.5-18.1 0-.4 8.3-.7 18.5-.7H265v-19h-29c-15.9 0-29 .1-29.1.2zm-106 1c0 .2-.3 20.9-.5 46l-.5 45.8H120v-6.8c0-3.7.1-24.4.3-46l.3-39.2h-9.8c-5.4 0-9.8.1-9.9.2zM49 205.8c0 2.1 10.7 15.8 18 23.1 14.6 14.5 36.4 26.7 55 30.7 15.4 3.3 35.3 3.9 47.5 1.5 16.9-3.4 31.7-9.5 45.7-18.7 9.2-6.1 24.1-20.8 30.1-29.9l4.7-7-10.7-.3-10.7-.3-2.5 3.3c-9.7 12.5-25.7 24.1-41.6 30.1-11.9 4.5-20.1 6-33.5 6.1-15 .1-20.5-.7-32.3-4.5-16.6-5.4-30.1-14.2-42.6-27.4l-6.9-7.5H59.1c-5.6 0-10.1.4-10.1.8z"/></svg>